<mxfile host="app.diagrams.net" modified="2024-01-26T09:50:49.953Z" agent="Mozilla/5.0 (Macintosh; Intel Mac OS X 10_15_7) AppleWebKit/537.36 (KHTML, like Gecko) Chrome/120.0.0.0 Safari/537.36" etag="GB1tA4ZlenmnVkXXnbK8" version="23.0.1" type="github">
  <diagram name="Page-1" id="20M73AAbPpsOpiNFh2Rf">
    <mxGraphModel dx="1207" dy="699" grid="1" gridSize="10" guides="1" tooltips="1" connect="1" arrows="1" fold="1" page="1" pageScale="1" pageWidth="827" pageHeight="1169" math="0" shadow="0">
      <root>
        <mxCell id="0" />
        <mxCell id="1" parent="0" />
        <mxCell id="LOcvImVd184odbR1vvfn-35" value="" style="rounded=0;whiteSpace=wrap;html=1;fillColor=none;dashed=1;" vertex="1" parent="1">
          <mxGeometry x="80" y="520" width="300" height="220" as="geometry" />
        </mxCell>
        <mxCell id="LOcvImVd184odbR1vvfn-3" style="edgeStyle=orthogonalEdgeStyle;rounded=0;orthogonalLoop=1;jettySize=auto;html=1;entryX=0.5;entryY=0;entryDx=0;entryDy=0;startArrow=classic;startFill=1;exitX=0.5;exitY=1;exitDx=0;exitDy=0;" edge="1" parent="1" source="LOcvImVd184odbR1vvfn-1" target="LOcvImVd184odbR1vvfn-2">
          <mxGeometry relative="1" as="geometry">
            <mxPoint x="180" y="280" as="sourcePoint" />
          </mxGeometry>
        </mxCell>
        <mxCell id="LOcvImVd184odbR1vvfn-37" value="Public IP" style="edgeLabel;html=1;align=center;verticalAlign=middle;resizable=0;points=[];" vertex="1" connectable="0" parent="LOcvImVd184odbR1vvfn-3">
          <mxGeometry x="-0.0019" y="2" relative="1" as="geometry">
            <mxPoint as="offset" />
          </mxGeometry>
        </mxCell>
        <mxCell id="LOcvImVd184odbR1vvfn-12" style="edgeStyle=orthogonalEdgeStyle;rounded=0;orthogonalLoop=1;jettySize=auto;html=1;entryX=0.5;entryY=0;entryDx=0;entryDy=0;startArrow=classic;startFill=1;" edge="1" parent="1" source="LOcvImVd184odbR1vvfn-1" target="LOcvImVd184odbR1vvfn-11">
          <mxGeometry relative="1" as="geometry" />
        </mxCell>
        <mxCell id="LOcvImVd184odbR1vvfn-1" value="Cluster" style="rounded=1;whiteSpace=wrap;html=1;" vertex="1" parent="1">
          <mxGeometry x="120" y="80" width="120" height="80" as="geometry" />
        </mxCell>
        <mxCell id="LOcvImVd184odbR1vvfn-2" value="Storage Account" style="rounded=1;whiteSpace=wrap;html=1;" vertex="1" parent="1">
          <mxGeometry x="120" y="320" width="120" height="80" as="geometry" />
        </mxCell>
        <mxCell id="LOcvImVd184odbR1vvfn-11" value="MongoDB" style="rounded=1;whiteSpace=wrap;html=1;" vertex="1" parent="1">
          <mxGeometry x="280" y="320" width="120" height="80" as="geometry" />
        </mxCell>
        <mxCell id="LOcvImVd184odbR1vvfn-14" style="edgeStyle=orthogonalEdgeStyle;rounded=0;orthogonalLoop=1;jettySize=auto;html=1;entryX=0.5;entryY=0;entryDx=0;entryDy=0;startArrow=classic;startFill=1;" edge="1" parent="1" source="LOcvImVd184odbR1vvfn-13" target="LOcvImVd184odbR1vvfn-11">
          <mxGeometry relative="1" as="geometry" />
        </mxCell>
        <mxCell id="LOcvImVd184odbR1vvfn-38" value="Public IP" style="edgeLabel;html=1;align=center;verticalAlign=middle;resizable=0;points=[];" vertex="1" connectable="0" parent="LOcvImVd184odbR1vvfn-14">
          <mxGeometry x="0.3851" relative="1" as="geometry">
            <mxPoint y="12" as="offset" />
          </mxGeometry>
        </mxCell>
        <mxCell id="LOcvImVd184odbR1vvfn-16" style="edgeStyle=orthogonalEdgeStyle;rounded=0;orthogonalLoop=1;jettySize=auto;html=1;entryX=0.5;entryY=0;entryDx=0;entryDy=0;startArrow=classic;startFill=1;" edge="1" parent="1" source="LOcvImVd184odbR1vvfn-13" target="LOcvImVd184odbR1vvfn-15">
          <mxGeometry relative="1" as="geometry" />
        </mxCell>
        <mxCell id="LOcvImVd184odbR1vvfn-18" style="edgeStyle=orthogonalEdgeStyle;rounded=0;orthogonalLoop=1;jettySize=auto;html=1;" edge="1" parent="1" source="LOcvImVd184odbR1vvfn-13" target="LOcvImVd184odbR1vvfn-17">
          <mxGeometry relative="1" as="geometry" />
        </mxCell>
        <mxCell id="LOcvImVd184odbR1vvfn-13" value="Function App" style="rounded=1;whiteSpace=wrap;html=1;" vertex="1" parent="1">
          <mxGeometry x="440" y="80" width="120" height="80" as="geometry" />
        </mxCell>
        <mxCell id="LOcvImVd184odbR1vvfn-15" value="Service Bus" style="rounded=1;whiteSpace=wrap;html=1;" vertex="1" parent="1">
          <mxGeometry x="440" y="320" width="120" height="80" as="geometry" />
        </mxCell>
        <mxCell id="LOcvImVd184odbR1vvfn-17" value="3rd Party Services" style="rounded=1;whiteSpace=wrap;html=1;" vertex="1" parent="1">
          <mxGeometry x="600" y="320" width="120" height="80" as="geometry" />
        </mxCell>
        <mxCell id="LOcvImVd184odbR1vvfn-20" style="edgeStyle=orthogonalEdgeStyle;rounded=0;orthogonalLoop=1;jettySize=auto;html=1;entryX=0.5;entryY=0;entryDx=0;entryDy=0;startArrow=classic;startFill=1;exitX=0.5;exitY=1;exitDx=0;exitDy=0;" edge="1" parent="1" source="LOcvImVd184odbR1vvfn-33" target="LOcvImVd184odbR1vvfn-23">
          <mxGeometry relative="1" as="geometry">
            <mxPoint x="180" y="760" as="sourcePoint" />
          </mxGeometry>
        </mxCell>
        <mxCell id="LOcvImVd184odbR1vvfn-39" value="Private Backbone Network" style="edgeLabel;html=1;align=center;verticalAlign=middle;resizable=0;points=[];" vertex="1" connectable="0" parent="LOcvImVd184odbR1vvfn-20">
          <mxGeometry x="-0.0022" relative="1" as="geometry">
            <mxPoint as="offset" />
          </mxGeometry>
        </mxCell>
        <mxCell id="LOcvImVd184odbR1vvfn-21" style="edgeStyle=orthogonalEdgeStyle;rounded=0;orthogonalLoop=1;jettySize=auto;html=1;entryX=0.5;entryY=0;entryDx=0;entryDy=0;startArrow=classic;startFill=1;" edge="1" parent="1" source="LOcvImVd184odbR1vvfn-22" target="LOcvImVd184odbR1vvfn-24">
          <mxGeometry relative="1" as="geometry" />
        </mxCell>
        <mxCell id="LOcvImVd184odbR1vvfn-22" value="Cluster" style="rounded=1;whiteSpace=wrap;html=1;" vertex="1" parent="1">
          <mxGeometry x="120" y="560" width="120" height="80" as="geometry" />
        </mxCell>
        <mxCell id="LOcvImVd184odbR1vvfn-23" value="Storage Account" style="rounded=1;whiteSpace=wrap;html=1;" vertex="1" parent="1">
          <mxGeometry x="120" y="800" width="120" height="80" as="geometry" />
        </mxCell>
        <mxCell id="LOcvImVd184odbR1vvfn-24" value="MongoDB" style="rounded=1;whiteSpace=wrap;html=1;" vertex="1" parent="1">
          <mxGeometry x="280" y="800" width="120" height="80" as="geometry" />
        </mxCell>
        <mxCell id="LOcvImVd184odbR1vvfn-25" style="edgeStyle=orthogonalEdgeStyle;rounded=0;orthogonalLoop=1;jettySize=auto;html=1;entryX=0.5;entryY=0;entryDx=0;entryDy=0;startArrow=classic;startFill=1;" edge="1" parent="1" source="LOcvImVd184odbR1vvfn-31" target="LOcvImVd184odbR1vvfn-24">
          <mxGeometry relative="1" as="geometry" />
        </mxCell>
        <mxCell id="LOcvImVd184odbR1vvfn-40" value="Private Backbone Network" style="edgeLabel;html=1;align=center;verticalAlign=middle;resizable=0;points=[];" vertex="1" connectable="0" parent="LOcvImVd184odbR1vvfn-25">
          <mxGeometry x="-0.0457" relative="1" as="geometry">
            <mxPoint as="offset" />
          </mxGeometry>
        </mxCell>
        <mxCell id="LOcvImVd184odbR1vvfn-26" style="edgeStyle=orthogonalEdgeStyle;rounded=0;orthogonalLoop=1;jettySize=auto;html=1;entryX=0.5;entryY=0;entryDx=0;entryDy=0;startArrow=classic;startFill=1;" edge="1" parent="1" source="LOcvImVd184odbR1vvfn-28" target="LOcvImVd184odbR1vvfn-29">
          <mxGeometry relative="1" as="geometry" />
        </mxCell>
        <mxCell id="LOcvImVd184odbR1vvfn-27" style="edgeStyle=orthogonalEdgeStyle;rounded=0;orthogonalLoop=1;jettySize=auto;html=1;" edge="1" parent="1" source="LOcvImVd184odbR1vvfn-28" target="LOcvImVd184odbR1vvfn-30">
          <mxGeometry relative="1" as="geometry" />
        </mxCell>
        <mxCell id="LOcvImVd184odbR1vvfn-28" value="Function App" style="rounded=1;whiteSpace=wrap;html=1;" vertex="1" parent="1">
          <mxGeometry x="440" y="560" width="120" height="80" as="geometry" />
        </mxCell>
        <mxCell id="LOcvImVd184odbR1vvfn-29" value="Service Bus" style="rounded=1;whiteSpace=wrap;html=1;" vertex="1" parent="1">
          <mxGeometry x="440" y="800" width="120" height="80" as="geometry" />
        </mxCell>
        <mxCell id="LOcvImVd184odbR1vvfn-30" value="3rd Party Services" style="rounded=1;whiteSpace=wrap;html=1;" vertex="1" parent="1">
          <mxGeometry x="600" y="800" width="120" height="80" as="geometry" />
        </mxCell>
        <mxCell id="LOcvImVd184odbR1vvfn-32" value="" style="edgeStyle=orthogonalEdgeStyle;rounded=0;orthogonalLoop=1;jettySize=auto;html=1;entryX=0.5;entryY=0;entryDx=0;entryDy=0;startArrow=classic;startFill=1;" edge="1" parent="1" source="LOcvImVd184odbR1vvfn-28" target="LOcvImVd184odbR1vvfn-31">
          <mxGeometry relative="1" as="geometry">
            <mxPoint x="440" y="600" as="sourcePoint" />
            <mxPoint x="340" y="800" as="targetPoint" />
          </mxGeometry>
        </mxCell>
        <mxCell id="LOcvImVd184odbR1vvfn-31" value="Private Link" style="rounded=1;whiteSpace=wrap;html=1;" vertex="1" parent="1">
          <mxGeometry x="280" y="680" width="120" height="80" as="geometry" />
        </mxCell>
        <mxCell id="LOcvImVd184odbR1vvfn-34" value="" style="edgeStyle=orthogonalEdgeStyle;rounded=0;orthogonalLoop=1;jettySize=auto;html=1;entryX=0.5;entryY=0;entryDx=0;entryDy=0;startArrow=classic;startFill=1;exitX=0.5;exitY=1;exitDx=0;exitDy=0;" edge="1" parent="1" source="LOcvImVd184odbR1vvfn-22" target="LOcvImVd184odbR1vvfn-33">
          <mxGeometry relative="1" as="geometry">
            <mxPoint x="180" y="640" as="sourcePoint" />
            <mxPoint x="180" y="800" as="targetPoint" />
          </mxGeometry>
        </mxCell>
        <mxCell id="LOcvImVd184odbR1vvfn-33" value="Private Link" style="rounded=1;whiteSpace=wrap;html=1;" vertex="1" parent="1">
          <mxGeometry x="120" y="680" width="120" height="80" as="geometry" />
        </mxCell>
        <mxCell id="LOcvImVd184odbR1vvfn-36" value="Private VNet" style="text;html=1;strokeColor=none;fillColor=none;align=center;verticalAlign=middle;whiteSpace=wrap;rounded=0;" vertex="1" parent="1">
          <mxGeometry x="200" y="520" width="80" height="30" as="geometry" />
        </mxCell>
      </root>
    </mxGraphModel>
  </diagram>
</mxfile>
